 <svg id="letter" width="830"
                height="864"
                viewBox="0 0 830 864"
                fill="none"
                xmlns="http://www.w3.org/2000/svg"
              >
                <g filter="url(#filter0_d)">
                  <path
                    d="M67 712.536H86.7525C91.7074 712.536 96.1043 713.52 99.9432 715.486C103.782 717.453 106.751 720.223 108.849 723.799C110.991 727.33 112.063 731.397 112.063 736C112.063 740.603 110.991 744.693 108.849 748.268C106.751 751.799 103.782 754.547 99.9432 756.514C96.1043 758.48 91.7074 759.464 86.7525 759.464H67V712.536ZM86.3508 753.631C90.1451 753.631 93.4706 752.894 96.3275 751.419C99.229 749.944 101.461 747.888 103.023 745.251C104.586 742.57 105.367 739.486 105.367 736C105.367 732.514 104.586 729.453 103.023 726.816C101.461 724.134 99.229 722.056 96.3275 720.581C93.4706 719.106 90.1451 718.369 86.3508 718.369H73.6958V753.631H86.3508Z"
                    fill="#FF0000"
                  />
                  <path
                    d="M163.029 753.631V759.464H129.014V712.536H162.092V718.369H135.71V732.782H159.212V738.48H135.71V753.631H163.029Z"
                    fill="#FF0000"
                  />
                  <path
                    d="M194.226 760C190.7 760 187.285 759.464 183.981 758.391C180.723 757.274 178.156 755.844 176.281 754.101L178.759 748.872C180.544 750.48 182.821 751.799 185.588 752.827C188.401 753.81 191.28 754.302 194.226 754.302C198.11 754.302 201.011 753.654 202.931 752.358C204.85 751.017 205.81 749.251 205.81 747.061C205.81 745.453 205.274 744.156 204.203 743.173C203.176 742.145 201.882 741.363 200.319 740.827C198.801 740.29 196.637 739.687 193.824 739.017C190.298 738.168 187.441 737.318 185.254 736.469C183.111 735.62 181.259 734.324 179.696 732.581C178.178 730.793 177.42 728.402 177.42 725.408C177.42 722.905 178.067 720.648 179.361 718.637C180.701 716.626 182.709 715.017 185.388 713.81C188.066 712.603 191.391 712 195.364 712C198.132 712 200.855 712.358 203.533 713.073C206.211 713.788 208.51 714.816 210.43 716.156L208.22 721.52C206.256 720.268 204.158 719.33 201.926 718.704C199.694 718.034 197.507 717.698 195.364 717.698C191.57 717.698 188.713 718.391 186.794 719.777C184.919 721.162 183.981 722.95 183.981 725.14C183.981 726.749 184.517 728.067 185.588 729.095C186.66 730.078 187.977 730.86 189.539 731.441C191.146 731.978 193.311 732.559 196.034 733.184C199.56 734.034 202.395 734.883 204.538 735.732C206.68 736.581 208.51 737.877 210.028 739.62C211.59 741.363 212.372 743.709 212.372 746.659C212.372 749.117 211.702 751.374 210.363 753.43C209.024 755.441 206.993 757.05 204.27 758.257C201.547 759.419 198.199 760 194.226 760Z"
                    fill="#FF0000"
                  />
                  <path
                    d="M228.849 712.536H235.545V759.464H228.849V712.536Z"
                    fill="#FF0000"
                  />
                  <path
                    d="M288.748 735.732H295.176V754.034C292.855 755.955 290.154 757.43 287.074 758.458C283.994 759.486 280.78 760 277.432 760C272.7 760 268.437 758.972 264.643 756.916C260.849 754.816 257.858 751.955 255.671 748.335C253.528 744.67 252.457 740.559 252.457 736C252.457 731.441 253.528 727.33 255.671 723.665C257.858 720 260.849 717.14 264.643 715.084C268.482 713.028 272.79 712 277.566 712C281.316 712 284.708 712.626 287.744 713.877C290.824 715.084 293.435 716.872 295.578 719.24L291.426 723.397C287.677 719.777 283.146 717.966 277.834 717.966C274.263 717.966 271.049 718.749 268.192 720.313C265.38 721.832 263.17 723.978 261.563 726.749C259.956 729.475 259.153 732.559 259.153 736C259.153 739.397 259.956 742.48 261.563 745.251C263.17 747.978 265.38 750.123 268.192 751.687C271.049 753.251 274.24 754.034 277.767 754.034C281.963 754.034 285.623 753.028 288.748 751.017V735.732Z"
                    fill="#FF0000"
                  />
                  <path
                    d="M355 712.536V759.464H349.509L321.387 724.469V759.464H314.691V712.536H320.182L348.304 747.531V712.536H355Z"
                    fill="#FF0000"
                  />
                  <path
                    d="M127.087 535.62L119.96 525.411C119.079 525.474 118.387 525.506 117.884 525.506H109.719V535.62H105V502.38H117.884C122.163 502.38 125.529 503.409 127.983 505.466C130.437 507.524 131.664 510.358 131.664 513.966C131.664 516.531 131.035 518.715 129.777 520.52C128.518 522.324 126.725 523.638 124.396 524.461L132.231 535.62H127.087ZM117.742 521.469C120.731 521.469 123.012 520.82 124.585 519.522C126.158 518.224 126.945 516.372 126.945 513.966C126.945 511.561 126.158 509.724 124.585 508.458C123.012 507.16 120.731 506.511 117.742 506.511H109.719V521.469H117.742Z"
                    fill="url(#paint0_linear)"
                  />
                  <path
                    d="M165.057 527.31H147.501L143.867 535.62H139.006L153.966 502.38H158.638L173.646 535.62H168.69L165.057 527.31ZM163.405 523.511L156.279 507.223L149.152 523.511H163.405Z"
                    fill="url(#paint1_linear)"
                  />
                  <path
                    d="M211.704 502.38V535.62H207.834L188.012 510.832V535.62H183.293V502.38H187.163L206.984 527.168V502.38H211.704Z"
                    fill="url(#paint2_linear)"
                  />
                  <path
                    d="M237.071 520.852L231.03 527.025V535.62H226.311V502.38H231.03V520.947L248.964 502.38H254.344L240.233 517.338L255.241 535.62H249.719L237.071 520.852Z"
                    fill="url(#paint3_linear)"
                  />
                  <path
                    d="M264.951 502.38H269.67V535.62H264.951V502.38Z"
                    fill="url(#paint4_linear)"
                  />
                  <path
                    d="M312.69 502.38V535.62H308.82L288.999 510.832V535.62H284.28V502.38H288.149L307.971 527.168V502.38H312.69Z"
                    fill="url(#paint5_linear)"
                  />
                  <path
                    d="M350.186 518.81H354.717V531.774C353.081 533.135 351.177 534.18 349.006 534.908C346.836 535.636 344.57 536 342.211 536C338.876 536 335.871 535.272 333.197 533.816C330.522 532.328 328.414 530.302 326.873 527.737C325.363 525.142 324.607 522.229 324.607 519C324.607 515.771 325.363 512.858 326.873 510.263C328.414 507.667 330.522 505.641 333.197 504.184C335.902 502.728 338.939 502 342.305 502C344.948 502 347.339 502.443 349.478 503.33C351.649 504.184 353.49 505.451 355 507.128L352.074 510.073C349.431 507.508 346.238 506.226 342.494 506.226C339.977 506.226 337.712 506.78 335.698 507.888C333.716 508.965 332.158 510.484 331.026 512.447C329.893 514.378 329.327 516.562 329.327 519C329.327 521.406 329.893 523.59 331.026 525.553C332.158 527.484 333.716 529.004 335.698 530.112C337.712 531.22 339.961 531.774 342.447 531.774C345.404 531.774 347.984 531.061 350.186 529.637V518.81Z"
                    fill="url(#paint6_linear)"
                  />
                  <path
                    d="M333.431 164C329.939 164 326.793 163.25 323.993 161.751C321.193 160.22 318.986 158.118 317.372 155.446C315.791 152.773 315 149.791 315 146.5C315 143.209 315.791 140.227 317.372 137.554C318.986 134.882 321.193 132.797 323.993 131.297C326.793 129.766 329.939 129 333.431 129C336.89 129 340.019 129.766 342.82 131.297C345.62 132.797 347.81 134.882 349.392 137.554C350.973 140.194 351.763 143.176 351.763 146.5C351.763 149.824 350.973 152.822 349.392 155.494C347.81 158.134 345.62 160.22 342.82 161.751C340.019 163.25 336.89 164 333.431 164ZM333.431 159.649C335.968 159.649 338.241 159.079 340.25 157.939C342.292 156.798 343.89 155.234 345.043 153.246C346.229 151.225 346.822 148.977 346.822 146.5C346.822 144.023 346.229 141.791 345.043 139.803C343.89 137.783 342.292 136.202 340.25 135.061C338.241 133.921 335.968 133.351 333.431 133.351C330.895 133.351 328.589 133.921 326.513 135.061C324.471 136.202 322.857 137.783 321.671 139.803C320.518 141.791 319.941 144.023 319.941 146.5C319.941 148.977 320.518 151.225 321.671 153.246C322.857 155.234 324.471 156.798 326.513 157.939C328.589 159.079 330.895 159.649 333.431 159.649Z"
                    fill="black"
                  />
                  <path
                    d="M333.431 164C329.939 164 326.793 163.25 323.993 161.751C321.193 160.22 318.986 158.118 317.372 155.446C315.791 152.773 315 149.791 315 146.5C315 143.209 315.791 140.227 317.372 137.554C318.986 134.882 321.193 132.797 323.993 131.297C326.793 129.766 329.939 129 333.431 129C336.89 129 340.019 129.766 342.82 131.297C345.62 132.797 347.81 134.882 349.392 137.554C350.973 140.194 351.763 143.176 351.763 146.5C351.763 149.824 350.973 152.822 349.392 155.494C347.81 158.134 345.62 160.22 342.82 161.751C340.019 163.25 336.89 164 333.431 164ZM333.431 159.649C335.968 159.649 338.241 159.079 340.25 157.939C342.292 156.798 343.89 155.234 345.043 153.246C346.229 151.225 346.822 148.977 346.822 146.5C346.822 144.023 346.229 141.791 345.043 139.803C343.89 137.783 342.292 136.202 340.25 135.061C338.241 133.921 335.968 133.351 333.431 133.351C330.895 133.351 328.589 133.921 326.513 135.061C324.471 136.202 322.857 137.783 321.671 139.803C320.518 141.791 319.941 144.023 319.941 146.5C319.941 148.977 320.518 151.225 321.671 153.246C322.857 155.234 324.471 156.798 326.513 157.939C328.589 159.079 330.895 159.649 333.431 159.649Z"
                    fill="url(#paint7_linear)"
                  />
                  <path
                    d="M377.747 129.391C382.227 129.391 385.752 130.45 388.321 132.568C390.891 134.687 392.175 137.603 392.175 141.318C392.175 145.034 390.891 147.95 388.321 150.068C385.752 152.187 382.227 153.246 377.747 153.246H369.198V163.609H364.257V129.391H377.747ZM377.599 148.993C380.728 148.993 383.116 148.341 384.764 147.038C386.411 145.702 387.234 143.795 387.234 141.318C387.234 138.842 386.411 136.952 384.764 135.648C383.116 134.312 380.728 133.644 377.599 133.644H369.198V148.993H377.599Z"
                    fill="black"
                  />
                  <path
                    d="M377.747 129.391C382.227 129.391 385.752 130.45 388.321 132.568C390.891 134.687 392.175 137.603 392.175 141.318C392.175 145.034 390.891 147.95 388.321 150.068C385.752 152.187 382.227 153.246 377.747 153.246H369.198V163.609H364.257V129.391H377.747ZM377.599 148.993C380.728 148.993 383.116 148.341 384.764 147.038C386.411 145.702 387.234 143.795 387.234 141.318C387.234 138.842 386.411 136.952 384.764 135.648C383.116 134.312 380.728 133.644 377.599 133.644H369.198V148.993H377.599Z"
                    fill="url(#paint8_linear)"
                  />
                  <path
                    d="M410.135 133.644H398.276V129.391H426.886V133.644H415.027V163.609H410.135V133.644Z"
                    fill="black"
                  />
                  <path
                    d="M410.135 133.644H398.276V129.391H426.886V133.644H415.027V163.609H410.135V133.644Z"
                    fill="url(#paint9_linear)"
                  />
                  <path
                    d="M437.209 129.391H442.15V163.609H437.209V129.391Z"
                    fill="black"
                  />
                  <path
                    d="M437.209 129.391H442.15V163.609H437.209V129.391Z"
                    fill="url(#paint10_linear)"
                  />
                  <path
                    d="M489.516 163.609L489.467 138.679L476.965 159.454H474.692L462.191 138.825V163.609H457.447V129.391H461.499L475.928 153.441L490.159 129.391H494.21L494.26 163.609H489.516Z"
                    fill="black"
                  />
                  <path
                    d="M489.516 163.609L489.467 138.679L476.965 159.454H474.692L462.191 138.825V163.609H457.447V129.391H461.499L475.928 153.441L490.159 129.391H494.21L494.26 163.609H489.516Z"
                    fill="url(#paint11_linear)"
                  />
                  <path
                    d="M509.582 129.391H514.523V163.609H509.582V129.391Z"
                    fill="black"
                  />
                  <path
                    d="M509.582 129.391H514.523V163.609H509.582V129.391Z"
                    fill="url(#paint12_linear)"
                  />
                  <path
                    d="M555.663 159.356V163.609H526.756V160.285L548.498 133.644H527.102V129.391H555.021V132.715L533.378 159.356H555.663Z"
                    fill="black"
                  />
                  <path
                    d="M555.663 159.356V163.609H526.756V160.285L548.498 133.644H527.102V129.391H555.021V132.715L533.378 159.356H555.663Z"
                    fill="url(#paint13_linear)"
                  />
                  <path
                    d="M589.275 155.054H570.893L567.089 163.609H561.999L577.663 129.391H582.555L598.268 163.609H593.08L589.275 155.054ZM587.546 151.144L580.084 134.377L572.623 151.144H587.546Z"
                    fill="black"
                  />
                  <path
                    d="M589.275 155.054H570.893L567.089 163.609H561.999L577.663 129.391H582.555L598.268 163.609H593.08L589.275 155.054ZM587.546 151.144L580.084 134.377L572.623 151.144H587.546Z"
                    fill="url(#paint14_linear)"
                  />
                  <path
                    d="M613.501 133.644H601.641V129.391H630.252V133.644H618.392V163.609H613.501V133.644Z"
                    fill="black"
                  />
                  <path
                    d="M613.501 133.644H601.641V129.391H630.252V133.644H618.392V163.609H613.501V133.644Z"
                    fill="url(#paint15_linear)"
                  />
                  <path
                    d="M640.575 129.391H645.516V163.609H640.575V129.391Z"
                    fill="black"
                  />
                  <path
                    d="M640.575 129.391H645.516V163.609H640.575V129.391Z"
                    fill="url(#paint16_linear)"
                  />
                  <path
                    d="M676.427 164C672.935 164 669.789 163.25 666.989 161.751C664.189 160.22 661.982 158.118 660.368 155.446C658.787 152.773 657.996 149.791 657.996 146.5C657.996 143.209 658.787 140.227 660.368 137.554C661.982 134.882 664.189 132.797 666.989 131.297C669.789 129.766 672.935 129 676.427 129C679.886 129 683.016 129.766 685.816 131.297C688.616 132.797 690.807 134.882 692.388 137.554C693.969 140.194 694.76 143.176 694.76 146.5C694.76 149.824 693.969 152.822 692.388 155.494C690.807 158.134 688.616 160.22 685.816 161.751C683.016 163.25 679.886 164 676.427 164ZM676.427 159.649C678.964 159.649 681.237 159.079 683.246 157.939C685.289 156.798 686.886 155.234 688.039 153.246C689.225 151.225 689.818 148.977 689.818 146.5C689.818 144.023 689.225 141.791 688.039 139.803C686.886 137.783 685.289 136.202 683.246 135.061C681.237 133.921 678.964 133.351 676.427 133.351C673.891 133.351 671.585 133.921 669.509 135.061C667.467 136.202 665.853 137.783 664.667 139.803C663.514 141.791 662.938 144.023 662.938 146.5C662.938 148.977 663.514 151.225 664.667 153.246C665.853 155.234 667.467 156.798 669.509 157.939C671.585 159.079 673.891 159.649 676.427 159.649Z"
                    fill="black"
                  />
                  <path
                    d="M676.427 164C672.935 164 669.789 163.25 666.989 161.751C664.189 160.22 661.982 158.118 660.368 155.446C658.787 152.773 657.996 149.791 657.996 146.5C657.996 143.209 658.787 140.227 660.368 137.554C661.982 134.882 664.189 132.797 666.989 131.297C669.789 129.766 672.935 129 676.427 129C679.886 129 683.016 129.766 685.816 131.297C688.616 132.797 690.807 134.882 692.388 137.554C693.969 140.194 694.76 143.176 694.76 146.5C694.76 149.824 693.969 152.822 692.388 155.494C690.807 158.134 688.616 160.22 685.816 161.751C683.016 163.25 679.886 164 676.427 164ZM676.427 159.649C678.964 159.649 681.237 159.079 683.246 157.939C685.289 156.798 686.886 155.234 688.039 153.246C689.225 151.225 689.818 148.977 689.818 146.5C689.818 144.023 689.225 141.791 688.039 139.803C686.886 137.783 685.289 136.202 683.246 135.061C681.237 133.921 678.964 133.351 676.427 133.351C673.891 133.351 671.585 133.921 669.509 135.061C667.467 136.202 665.853 137.783 664.667 139.803C663.514 141.791 662.938 144.023 662.938 146.5C662.938 148.977 663.514 151.225 664.667 153.246C665.853 155.234 667.467 156.798 669.509 157.939C671.585 159.079 673.891 159.649 676.427 159.649Z"
                    fill="url(#paint17_linear)"
                  />
                  <path
                    d="M737 129.391V163.609H732.948L712.195 138.092V163.609H707.253V129.391H711.305L732.059 154.908V129.391H737Z"
                    fill="black"
                  />
                  <path
                    d="M737 129.391V163.609H732.948L712.195 138.092V163.609H707.253V129.391H711.305L732.059 154.908V129.391H737Z"
                    fill="url(#paint18_linear)"
                  />
                  <path
                    d="M81.1976 277.187L81.1976 333.674H179.593L179.593 373.368H81.1976L81.1976 451.229H32L32 237.493L192.652 237.493V277.187H81.1976Z"
                    fill="url(#paint19_linear)"
                  />
                  <path
                    d="M423.21 405.428H323.442L304.41 451.229H253.451L349.228 237.492L398.345 237.492L494.429 451.229H442.242L423.21 405.428ZM407.554 367.871L373.48 286.041L339.405 367.871H407.554Z"
                    fill="url(#paint20_linear)"
                  />
                  <path
                    d="M799 475.166C792.102 483.746 783.682 490.284 773.74 494.778C764.002 499.272 753.249 501.52 741.481 501.52C725.656 501.52 711.352 498.047 698.57 491.101C685.788 484.359 671.18 472.306 654.746 454.941C635.471 452.49 618.226 446.259 603.009 436.249C587.995 426.238 576.228 413.368 567.706 397.637C559.388 381.703 555.229 364.134 555.229 344.93C555.229 323.888 560.2 304.991 570.141 288.239C580.286 271.283 594.183 258.004 611.835 248.403C629.689 238.801 649.674 234 671.789 234C693.903 234 713.787 238.801 731.438 248.403C749.089 258.004 762.987 271.283 773.132 288.239C783.276 304.991 788.348 323.888 788.348 344.93C788.348 369.854 781.349 391.713 767.349 410.508C753.553 429.303 735.191 442.377 712.265 449.732C717.337 455.043 722.206 458.823 726.873 461.07C731.742 463.521 736.916 464.747 742.394 464.747C755.582 464.747 767.146 459.436 777.088 448.812L799 475.166ZM605.139 344.93C605.139 358.209 607.98 370.058 613.661 380.477C619.545 390.896 627.559 399.068 637.703 404.992C647.848 410.712 659.209 413.572 671.789 413.572C684.368 413.572 695.729 410.712 705.874 404.992C716.018 399.068 723.931 390.896 729.612 380.477C735.496 370.058 738.438 358.209 738.438 344.93C738.438 331.651 735.496 319.802 729.612 309.384C723.931 298.965 716.018 290.895 705.874 285.175C695.729 279.251 684.368 276.288 671.789 276.288C659.209 276.288 647.848 279.251 637.703 285.175C627.559 290.895 619.545 298.965 613.661 309.384C607.98 319.802 605.139 331.651 605.139 344.93Z"
                    fill="url(#paint21_linear)"
                  />
                  <path
                    d="M27.3399 192C22.7532 192 18.3116 191.296 14.0152 189.888C9.77691 188.422 6.4385 186.545 4 184.257L7.2223 177.394C9.54467 179.506 12.5057 181.236 16.1054 182.585C19.7631 183.876 23.508 184.521 27.3399 184.521C32.391 184.521 36.1649 183.67 38.6615 181.969C41.158 180.209 42.4063 177.892 42.4063 175.018C42.4063 172.906 41.7096 171.205 40.3162 169.915C38.9808 168.566 37.2971 167.539 35.265 166.835C33.291 166.131 30.4751 165.339 26.8173 164.459C22.2307 163.345 18.5149 162.23 15.6699 161.116C12.8831 160.001 10.4736 158.3 8.44155 156.013C6.46752 153.666 5.48051 150.528 5.48051 146.598C5.48051 143.313 6.32238 140.351 8.0061 137.711C9.74788 135.071 12.3606 132.959 15.8441 131.376C19.3277 129.792 23.6531 129 28.8204 129C32.4201 129 35.9617 129.469 39.4453 130.408C42.9288 131.346 45.9189 132.696 48.4154 134.455L45.5415 141.494C42.9869 139.852 40.2581 138.62 37.3551 137.799C34.4522 136.919 31.6072 136.479 28.8204 136.479C23.8853 136.479 20.1695 137.388 17.673 139.207C15.2345 141.025 14.0152 143.372 14.0152 146.246C14.0152 148.358 14.712 150.088 16.1054 151.437C17.4988 152.728 19.2116 153.754 21.2436 154.517C23.3338 155.221 26.1497 155.983 29.6913 156.804C34.278 157.919 37.9648 159.034 40.7516 160.148C43.5385 161.263 45.9189 162.964 47.8929 165.251C49.925 167.539 50.941 170.619 50.941 174.49C50.941 177.716 50.0701 180.679 48.3284 183.377C46.5866 186.017 43.9449 188.128 40.4032 189.712C36.8616 191.237 32.5072 192 27.3399 192Z"
                    fill="black"
                  />
                  <path
                    d="M27.3399 192C22.7532 192 18.3116 191.296 14.0152 189.888C9.77691 188.422 6.4385 186.545 4 184.257L7.2223 177.394C9.54467 179.506 12.5057 181.236 16.1054 182.585C19.7631 183.876 23.508 184.521 27.3399 184.521C32.391 184.521 36.1649 183.67 38.6615 181.969C41.158 180.209 42.4063 177.892 42.4063 175.018C42.4063 172.906 41.7096 171.205 40.3162 169.915C38.9808 168.566 37.2971 167.539 35.265 166.835C33.291 166.131 30.4751 165.339 26.8173 164.459C22.2307 163.345 18.5149 162.23 15.6699 161.116C12.8831 160.001 10.4736 158.3 8.44155 156.013C6.46752 153.666 5.48051 150.528 5.48051 146.598C5.48051 143.313 6.32238 140.351 8.0061 137.711C9.74788 135.071 12.3606 132.959 15.8441 131.376C19.3277 129.792 23.6531 129 28.8204 129C32.4201 129 35.9617 129.469 39.4453 130.408C42.9288 131.346 45.9189 132.696 48.4154 134.455L45.5415 141.494C42.9869 139.852 40.2581 138.62 37.3551 137.799C34.4522 136.919 31.6072 136.479 28.8204 136.479C23.8853 136.479 20.1695 137.388 17.673 139.207C15.2345 141.025 14.0152 143.372 14.0152 146.246C14.0152 148.358 14.712 150.088 16.1054 151.437C17.4988 152.728 19.2116 153.754 21.2436 154.517C23.3338 155.221 26.1497 155.983 29.6913 156.804C34.278 157.919 37.9648 159.034 40.7516 160.148C43.5385 161.263 45.9189 162.964 47.8929 165.251C49.925 167.539 50.941 170.619 50.941 174.49C50.941 177.716 50.0701 180.679 48.3284 183.377C46.5866 186.017 43.9449 188.128 40.4032 189.712C36.8616 191.237 32.5072 192 27.3399 192Z"
                    fill="url(#paint22_linear)"
                  />
                  <path
                    d="M116.614 183.641V191.296H72.3731V129.704H115.395V137.359H81.082V156.277H111.65V163.756H81.082V183.641H116.614Z"
                    fill="black"
                  />
                  <path
                    d="M116.614 183.641V191.296H72.3731V129.704H115.395V137.359H81.082V156.277H111.65V163.756H81.082V183.641H116.614Z"
                    fill="url(#paint23_linear)"
                  />
                  <path
                    d="M166.69 192C160.536 192 154.991 190.651 150.056 187.953C145.121 185.196 141.231 181.412 138.386 176.602C135.599 171.792 134.206 166.425 134.206 160.5C134.206 154.575 135.599 149.208 138.386 144.398C141.231 139.588 145.121 135.834 150.056 133.135C154.991 130.378 160.536 129 166.69 129C172.786 129 178.302 130.378 183.237 133.135C188.172 135.834 192.033 139.588 194.82 144.398C197.607 149.149 199 154.517 199 160.5C199 166.483 197.607 171.88 194.82 176.69C192.033 181.441 188.172 185.196 183.237 187.953C178.302 190.651 172.786 192 166.69 192ZM166.69 184.169C171.161 184.169 175.167 183.142 178.708 181.089C182.308 179.036 185.124 176.221 187.156 172.642C189.246 169.006 190.291 164.958 190.291 160.5C190.291 156.042 189.246 152.024 187.156 148.446C185.124 144.809 182.308 141.964 178.708 139.911C175.167 137.858 171.161 136.831 166.69 136.831C162.219 136.831 158.155 137.858 154.497 139.911C150.898 141.964 148.053 144.809 145.963 148.446C143.931 152.024 142.915 156.042 142.915 160.5C142.915 164.958 143.931 169.006 145.963 172.642C148.053 176.221 150.898 179.036 154.497 181.089C158.155 183.142 162.219 184.169 166.69 184.169Z"
                    fill="black"
                  />
                  <path
                    d="M166.69 192C160.536 192 154.991 190.651 150.056 187.953C145.121 185.196 141.231 181.412 138.386 176.602C135.599 171.792 134.206 166.425 134.206 160.5C134.206 154.575 135.599 149.208 138.386 144.398C141.231 139.588 145.121 135.834 150.056 133.135C154.991 130.378 160.536 129 166.69 129C172.786 129 178.302 130.378 183.237 133.135C188.172 135.834 192.033 139.588 194.82 144.398C197.607 149.149 199 154.517 199 160.5C199 166.483 197.607 171.88 194.82 176.69C192.033 181.441 188.172 185.196 183.237 187.953C178.302 190.651 172.786 192 166.69 192ZM166.69 184.169C171.161 184.169 175.167 183.142 178.708 181.089C182.308 179.036 185.124 176.221 187.156 172.642C189.246 169.006 190.291 164.958 190.291 160.5C190.291 156.042 189.246 152.024 187.156 148.446C185.124 144.809 182.308 141.964 178.708 139.911C175.167 137.858 171.161 136.831 166.69 136.831C162.219 136.831 158.155 137.858 154.497 139.911C150.898 141.964 148.053 144.809 145.963 148.446C143.931 152.024 142.915 156.042 142.915 160.5C142.915 164.958 143.931 169.006 145.963 172.642C148.053 176.221 150.898 179.036 154.497 181.089C158.155 183.142 162.219 184.169 166.69 184.169Z"
                    fill="url(#paint24_linear)"
                  />
                  <path
                    d="M220.407 618.595L208.389 630.578V647.263H199V582.737H208.389V618.779L244.068 582.737H254.771L226.698 611.774L256.555 647.263H245.57L220.407 618.595Z"
                    fill="black"
                  />
                  <path
                    d="M220.407 618.595L208.389 630.578V647.263H199V582.737H208.389V618.779L244.068 582.737H254.771L226.698 611.774L256.555 647.263H245.57L220.407 618.595Z"
                    fill="url(#paint25_linear)"
                  />
                  <path
                    d="M323.57 639.243V647.263H275.874V582.737H322.256V590.757H285.263V610.575H318.219V618.411H285.263V639.243H323.57Z"
                    fill="black"
                  />
                  <path
                    d="M323.57 639.243V647.263H275.874V582.737H322.256V590.757H285.263V610.575H318.219V618.411H285.263V639.243H323.57Z"
                    fill="url(#paint26_linear)"
                  />
                  <path
                    d="M372.592 624.955V647.263H363.297V624.771L337.195 582.737H347.241L368.273 616.751L389.399 582.737H398.694L372.592 624.955Z"
                    fill="black"
                  />
                  <path
                    d="M372.592 624.955V647.263H363.297V624.771L337.195 582.737H347.241L368.273 616.751L389.399 582.737H398.694L372.592 624.955Z"
                    fill="url(#paint27_linear)"
                  />
                  <path
                    d="M508.451 582.737L486.48 647.263H476.621L458.688 595.735L440.755 647.263H430.709L408.738 582.737H418.409L436.154 635.187L454.651 582.737H463.289L481.41 635.464L499.531 582.737H508.451Z"
                    fill="black"
                  />
                  <path
                    d="M508.451 582.737L486.48 647.263H476.621L458.688 595.735L440.755 647.263H430.709L408.738 582.737H418.409L436.154 635.187L454.651 582.737H463.289L481.41 635.464L499.531 582.737H508.451Z"
                    fill="url(#paint28_linear)"
                  />
                  <path
                    d="M558.261 648C551.626 648 545.649 646.587 540.328 643.76C535.008 640.872 530.814 636.908 527.747 631.869C524.742 626.83 523.24 621.207 523.24 615C523.24 608.793 524.742 603.17 527.747 598.131C530.814 593.092 535.008 589.159 540.328 586.332C545.649 583.444 551.626 582 558.261 582C564.834 582 570.78 583.444 576.101 586.332C581.421 589.159 585.584 593.092 588.588 598.131C591.593 603.109 593.095 608.732 593.095 615C593.095 621.268 591.593 626.922 588.588 631.961C585.584 636.939 581.421 640.872 576.101 643.76C570.78 646.587 564.834 648 558.261 648ZM558.261 639.796C563.081 639.796 567.4 638.721 571.218 636.57C575.099 634.419 578.135 631.469 580.326 627.721C582.579 623.911 583.706 619.67 583.706 615C583.706 610.33 582.579 606.12 580.326 602.372C578.135 598.561 575.099 595.581 571.218 593.43C567.4 591.279 563.081 590.204 558.261 590.204C553.442 590.204 549.06 591.279 545.117 593.43C541.236 595.581 538.169 598.561 535.915 602.372C533.724 606.12 532.629 610.33 532.629 615C532.629 619.67 533.724 623.911 535.915 627.721C538.169 631.469 541.236 634.419 545.117 636.57C549.06 638.721 553.442 639.796 558.261 639.796Z"
                    fill="black"
                  />
                  <path
                    d="M558.261 648C551.626 648 545.649 646.587 540.328 643.76C535.008 640.872 530.814 636.908 527.747 631.869C524.742 626.83 523.24 621.207 523.24 615C523.24 608.793 524.742 603.17 527.747 598.131C530.814 593.092 535.008 589.159 540.328 586.332C545.649 583.444 551.626 582 558.261 582C564.834 582 570.78 583.444 576.101 586.332C581.421 589.159 585.584 593.092 588.588 598.131C591.593 603.109 593.095 608.732 593.095 615C593.095 621.268 591.593 626.922 588.588 631.961C585.584 636.939 581.421 640.872 576.101 643.76C570.78 646.587 564.834 648 558.261 648ZM558.261 639.796C563.081 639.796 567.4 638.721 571.218 636.57C575.099 634.419 578.135 631.469 580.326 627.721C582.579 623.911 583.706 619.67 583.706 615C583.706 610.33 582.579 606.12 580.326 602.372C578.135 598.561 575.099 595.581 571.218 593.43C567.4 591.279 563.081 590.204 558.261 590.204C553.442 590.204 549.06 591.279 545.117 593.43C541.236 595.581 538.169 598.561 535.915 602.372C533.724 606.12 532.629 610.33 532.629 615C532.629 619.67 533.724 623.911 535.915 627.721C538.169 631.469 541.236 634.419 545.117 636.57C549.06 638.721 553.442 639.796 558.261 639.796Z"
                    fill="url(#paint29_linear)"
                  />
                  <path
                    d="M660.776 647.263L646.599 627.444C644.846 627.567 643.469 627.628 642.467 627.628H626.224V647.263H616.835V582.737H642.467C650.98 582.737 657.678 584.735 662.56 588.729C667.442 592.723 669.884 598.223 669.884 605.229C669.884 610.207 668.632 614.447 666.128 617.95C663.624 621.453 660.056 624.003 655.424 625.601L671.01 647.263H660.776ZM642.186 619.793C648.132 619.793 652.67 618.534 655.8 616.014C658.93 613.494 660.494 609.899 660.494 605.229C660.494 600.559 658.93 596.994 655.8 594.536C652.67 592.017 648.132 590.757 642.186 590.757H626.224V619.793H642.186Z"
                    fill="black"
                  />
                  <path
                    d="M660.776 647.263L646.599 627.444C644.846 627.567 643.469 627.628 642.467 627.628H626.224V647.263H616.835V582.737H642.467C650.98 582.737 657.678 584.735 662.56 588.729C667.442 592.723 669.884 598.223 669.884 605.229C669.884 610.207 668.632 614.447 666.128 617.95C663.624 621.453 660.056 624.003 655.424 625.601L671.01 647.263H660.776ZM642.186 619.793C648.132 619.793 652.67 618.534 655.8 616.014C658.93 613.494 660.494 609.899 660.494 605.229C660.494 600.559 658.93 596.994 655.8 594.536C652.67 592.017 648.132 590.757 642.186 590.757H626.224V619.793H642.186Z"
                    fill="url(#paint30_linear)"
                  />
                  <path
                    d="M694.442 582.737H722.14C729.088 582.737 735.254 584.089 740.637 586.793C746.02 589.497 750.182 593.307 753.124 598.223C756.129 603.078 757.631 608.67 757.631 615C757.631 621.33 756.129 626.953 753.124 631.869C750.182 636.723 746.02 640.503 740.637 643.207C735.254 645.911 729.088 647.263 722.14 647.263H694.442V582.737ZM721.577 639.243C726.897 639.243 731.56 638.229 735.567 636.201C739.635 634.173 742.765 631.346 744.956 627.721C747.146 624.034 748.242 619.793 748.242 615C748.242 610.207 747.146 605.997 744.956 602.372C742.765 598.684 739.635 595.827 735.567 593.799C731.56 591.771 726.897 590.757 721.577 590.757H703.831V639.243H721.577Z"
                    fill="black"
                  />
                  <path
                    d="M694.442 582.737H722.14C729.088 582.737 735.254 584.089 740.637 586.793C746.02 589.497 750.182 593.307 753.124 598.223C756.129 603.078 757.631 608.67 757.631 615C757.631 621.33 756.129 626.953 753.124 631.869C750.182 636.723 746.02 640.503 740.637 643.207C735.254 645.911 729.088 647.263 722.14 647.263H694.442V582.737ZM721.577 639.243C726.897 639.243 731.56 638.229 735.567 636.201C739.635 634.173 742.765 631.346 744.956 627.721C747.146 624.034 748.242 619.793 748.242 615C748.242 610.207 747.146 605.997 744.956 602.372C742.765 598.684 739.635 595.827 735.567 593.799C731.56 591.771 726.897 590.757 721.577 590.757H703.831V639.243H721.577Z"
                    fill="url(#paint31_linear)"
                  />
                  <path
                    d="M800.555 648C795.611 648 790.822 647.263 786.19 645.788C781.621 644.251 778.021 642.285 775.393 639.888L778.867 632.698C781.37 634.911 784.563 636.723 788.443 638.137C792.387 639.489 796.424 640.165 800.555 640.165C806.001 640.165 810.07 639.274 812.761 637.492C815.453 635.648 816.799 633.221 816.799 630.209C816.799 627.997 816.048 626.215 814.545 624.863C813.106 623.45 811.29 622.374 809.1 621.637C806.971 620.899 803.936 620.07 799.992 619.148C795.047 617.98 791.041 616.813 787.974 615.645C784.969 614.478 782.372 612.696 780.181 610.299C778.053 607.841 776.989 604.553 776.989 600.436C776.989 596.994 777.896 593.891 779.712 591.126C781.589 588.36 784.406 586.148 788.162 584.489C791.917 582.83 796.581 582 802.152 582C806.032 582 809.851 582.492 813.606 583.475C817.362 584.458 820.586 585.872 823.277 587.715L820.179 595.089C817.425 593.369 814.483 592.078 811.353 591.218C808.223 590.296 805.156 589.835 802.152 589.835C796.831 589.835 792.825 590.788 790.133 592.693C787.505 594.598 786.19 597.056 786.19 600.067C786.19 602.279 786.941 604.092 788.443 605.506C789.946 606.858 791.792 607.933 793.983 608.732C796.236 609.469 799.272 610.268 803.091 611.128C808.035 612.296 812.01 613.464 815.015 614.631C818.019 615.799 820.586 617.581 822.714 619.978C824.905 622.374 826 625.601 826 629.656C826 633.036 825.061 636.14 823.183 638.966C821.305 641.732 818.457 643.944 814.639 645.603C810.821 647.201 806.126 648 800.555 648Z"
                    fill="black"
                  />
                  <path
                    d="M800.555 648C795.611 648 790.822 647.263 786.19 645.788C781.621 644.251 778.021 642.285 775.393 639.888L778.867 632.698C781.37 634.911 784.563 636.723 788.443 638.137C792.387 639.489 796.424 640.165 800.555 640.165C806.001 640.165 810.07 639.274 812.761 637.492C815.453 635.648 816.799 633.221 816.799 630.209C816.799 627.997 816.048 626.215 814.545 624.863C813.106 623.45 811.29 622.374 809.1 621.637C806.971 620.899 803.936 620.07 799.992 619.148C795.047 617.98 791.041 616.813 787.974 615.645C784.969 614.478 782.372 612.696 780.181 610.299C778.053 607.841 776.989 604.553 776.989 600.436C776.989 596.994 777.896 593.891 779.712 591.126C781.589 588.36 784.406 586.148 788.162 584.489C791.917 582.83 796.581 582 802.152 582C806.032 582 809.851 582.492 813.606 583.475C817.362 584.458 820.586 585.872 823.277 587.715L820.179 595.089C817.425 593.369 814.483 592.078 811.353 591.218C808.223 590.296 805.156 589.835 802.152 589.835C796.831 589.835 792.825 590.788 790.133 592.693C787.505 594.598 786.19 597.056 786.19 600.067C786.19 602.279 786.941 604.092 788.443 605.506C789.946 606.858 791.792 607.933 793.983 608.732C796.236 609.469 799.272 610.268 803.091 611.128C808.035 612.296 812.01 613.464 815.015 614.631C818.019 615.799 820.586 617.581 822.714 619.978C824.905 622.374 826 625.601 826 629.656C826 633.036 825.061 636.14 823.183 638.966C821.305 641.732 818.457 643.944 814.639 645.603C810.821 647.201 806.126 648 800.555 648Z"
                    fill="url(#paint32_linear)"
                  />
                  <path
                    d="M178.675 24.5656H162.046L158.604 32.6313H154L168.17 0.368713H172.596L186.811 32.6313H182.117L178.675 24.5656ZM177.111 20.8785L170.361 5.06983L163.611 20.8785H177.111Z"
                    fill="url(#paint33_linear)"
                  />
                  <path
                    d="M222.859 0.368713V32.6313H219.193L200.419 8.57263V32.6313H195.949V0.368713H199.614L218.389 24.4274V0.368713H222.859Z"
                    fill="url(#paint34_linear)"
                  />
                  <path
                    d="M256.632 24.5656H240.003L236.561 32.6313H231.956L246.127 0.368713H250.552L264.767 32.6313H260.074L256.632 24.5656ZM255.067 20.8785L248.317 5.06983L241.567 20.8785H255.067Z"
                    fill="url(#paint35_linear)"
                  />
                  <path
                    d="M273.905 0.368713H278.375V28.6215H295.317V32.6313H273.905V0.368713Z"
                    fill="url(#paint36_linear)"
                  />
                  <path
                    d="M304.917 0.368713H309.387V32.6313H304.917V0.368713Z"
                    fill="url(#paint37_linear)"
                  />
                  <path
                    d="M332.344 33C329.99 33 327.71 32.6313 325.505 31.8939C323.329 31.1257 321.616 30.1425 320.364 28.9441L322.018 25.3492C323.21 26.4553 324.73 27.3617 326.577 28.0684C328.455 28.7444 330.377 29.0824 332.344 29.0824C334.937 29.0824 336.874 28.6369 338.155 27.7458C339.437 26.824 340.077 25.6103 340.077 24.1047C340.077 22.9986 339.72 22.1075 339.004 21.4316C338.319 20.7249 337.455 20.1872 336.412 19.8184C335.398 19.4497 333.953 19.0349 332.076 18.574C329.721 17.9902 327.814 17.4064 326.354 16.8226C324.924 16.2388 323.687 15.3478 322.644 14.1494C321.631 12.9204 321.124 11.2765 321.124 9.21788C321.124 7.49721 321.556 5.94553 322.42 4.56285C323.314 3.18017 324.655 2.07402 326.443 1.24441C328.231 0.414804 330.452 0 333.104 0C334.951 0 336.769 0.24581 338.557 0.737429C340.345 1.22905 341.88 1.93575 343.162 2.85754L341.686 6.54469C340.375 5.68436 338.975 5.0391 337.485 4.60894C335.995 4.14804 334.534 3.9176 333.104 3.9176C330.571 3.9176 328.664 4.39385 327.382 5.34637C326.13 6.29888 325.505 7.52793 325.505 9.03352C325.505 10.1397 325.862 11.0461 326.577 11.7528C327.293 12.4288 328.172 12.9665 329.215 13.3659C330.288 13.7346 331.733 14.1341 333.551 14.5642C335.905 15.148 337.797 15.7318 339.228 16.3156C340.658 16.8994 341.88 17.7905 342.893 18.9888C343.936 20.1872 344.458 21.8003 344.458 23.8282C344.458 25.5182 344.011 27.0698 343.117 28.4832C342.223 29.8659 340.867 30.9721 339.049 31.8017C337.231 32.6006 334.996 33 332.344 33Z"
                    fill="url(#paint38_linear)"
                  />
                  <path
                    d="M355.459 0.368713H359.929V32.6313H355.459V0.368713Z"
                    fill="url(#paint39_linear)"
                  />
                  <path
                    d="M382.886 33C380.532 33 378.252 32.6313 376.047 31.8939C373.871 31.1257 372.158 30.1425 370.906 28.9441L372.56 25.3492C373.752 26.4553 375.272 27.3617 377.12 28.0684C378.997 28.7444 380.919 29.0824 382.886 29.0824C385.479 29.0824 387.416 28.6369 388.697 27.7458C389.979 26.824 390.619 25.6103 390.619 24.1047C390.619 22.9986 390.262 22.1075 389.546 21.4316C388.861 20.7249 387.997 20.1872 386.954 19.8184C385.941 19.4497 384.495 19.0349 382.618 18.574C380.264 17.9902 378.356 17.4064 376.896 16.8226C375.466 16.2388 374.229 15.3478 373.186 14.1494C372.173 12.9204 371.666 11.2765 371.666 9.21788C371.666 7.49721 372.098 5.94553 372.962 4.56285C373.856 3.18017 375.197 2.07402 376.985 1.24441C378.773 0.414804 380.994 0 383.646 0C385.494 0 387.311 0.24581 389.099 0.737429C390.887 1.22905 392.422 1.93575 393.704 2.85754L392.229 6.54469C390.917 5.68436 389.517 5.0391 388.027 4.60894C386.537 4.14804 385.076 3.9176 383.646 3.9176C381.113 3.9176 379.206 4.39385 377.924 5.34637C376.673 6.29888 376.047 7.52793 376.047 9.03352C376.047 10.1397 376.404 11.0461 377.12 11.7528C377.835 12.4288 378.714 12.9665 379.757 13.3659C380.83 13.7346 382.275 14.1341 384.093 14.5642C386.447 15.148 388.34 15.7318 389.77 16.3156C391.2 16.8994 392.422 17.7905 393.435 18.9888C394.479 20.1872 395 21.8003 395 23.8282C395 25.5182 394.553 27.0698 393.659 28.4832C392.765 29.8659 391.409 30.9721 389.591 31.8017C387.773 32.6006 385.538 33 382.886 33Z"
                    fill="url(#paint40_linear)"
                  />
                  <path
                    d="M400.754 855.564L400.699 827.785L386.761 850.934H384.227L370.289 827.948V855.564H365V817.436H369.517L385.604 844.235L401.47 817.436H405.987L406.042 855.564H400.754Z"
                    fill="#FF0000"
                  />
                  <path
                    d="M447.695 846.032H427.201L422.959 855.564H417.285L434.749 817.436H440.203L457.722 855.564H451.937L447.695 846.032ZM445.767 841.675L437.448 822.992L429.13 841.675H445.767Z"
                    fill="#FF0000"
                  />
                  <path
                    d="M494.766 855.564L486.447 843.853C485.419 843.926 484.611 843.962 484.023 843.962H474.492V855.564H468.983V817.436H484.023C489.018 817.436 492.948 818.616 495.812 820.976C498.677 823.337 500.109 826.587 500.109 830.726C500.109 833.668 499.375 836.173 497.906 838.243C496.437 840.313 494.343 841.82 491.625 842.764L500.771 855.564H494.766ZM483.858 839.332C487.347 839.332 490.009 838.588 491.846 837.099C493.682 835.61 494.6 833.486 494.6 830.726C494.6 827.966 493.682 825.86 491.846 824.408C490.009 822.919 487.347 822.175 483.858 822.175H474.492V839.332H483.858Z"
                    fill="#FF0000"
                  />
                  <path
                    d="M527.08 838.624L520.028 845.705V855.564H514.519V817.436H520.028V838.733L540.962 817.436H547.243L530.771 834.594L548.29 855.564H541.844L527.08 838.624Z"
                    fill="#FF0000"
                  />
                  <path
                    d="M587.61 850.825V855.564H559.624V817.436H586.839V822.175H565.133V833.885H584.47V838.515H565.133V850.825H587.61Z"
                    fill="#FF0000"
                  />
                  <path
                    d="M609.697 822.175H596.476V817.436H628.373V822.175H615.151V855.564H609.697V822.175Z"
                    fill="#FF0000"
                  />
                  <path
                    d="M639.882 817.436H645.391V855.564H639.882V817.436Z"
                    fill="#FF0000"
                  />
                  <path
                    d="M695.61 817.436V855.564H691.093L667.955 827.131V855.564H662.446V817.436H666.963L690.101 845.869V817.436H695.61Z"
                    fill="#FF0000"
                  />
                  <path
                    d="M739.381 836.282H744.669V851.152C742.76 852.714 740.538 853.912 738.004 854.747C735.469 855.582 732.825 856 730.07 856C726.177 856 722.67 855.165 719.548 853.494C716.426 851.788 713.966 849.464 712.166 846.522C710.403 843.545 709.522 840.204 709.522 836.5C709.522 832.796 710.403 829.455 712.166 826.478C713.966 823.5 716.426 821.176 719.548 819.506C722.707 817.835 726.251 817 730.181 817C733.266 817 736.057 817.508 738.554 818.525C741.089 819.506 743.237 820.958 745 822.883L741.584 826.26C738.499 823.318 734.772 821.848 730.401 821.848C727.463 821.848 724.819 822.483 722.468 823.754C720.154 824.989 718.336 826.732 717.014 828.983C715.692 831.198 715.031 833.704 715.031 836.5C715.031 839.26 715.692 841.765 717.014 844.017C718.336 846.232 720.154 847.975 722.468 849.246C724.819 850.517 727.445 851.152 730.346 851.152C733.798 851.152 736.81 850.335 739.381 848.701V836.282Z"
                    fill="#FF0000"
                  />
                </g>
                <g filter="url(#filter1_d)">
                  <path
                    d="M508.36 63.2398C506.933 63.2398 505.64 62.9331 504.48 62.3198C503.333 61.6931 502.427 60.8331 501.76 59.7398C501.107 58.6331 500.78 57.3864 500.78 55.9998C500.78 54.6131 501.107 53.3731 501.76 52.2798C502.427 51.1731 503.333 50.3131 504.48 49.6998C505.64 49.0731 506.94 48.7598 508.38 48.7598C509.593 48.7598 510.687 48.9731 511.66 49.3998C512.647 49.8264 513.473 50.4398 514.14 51.2398L512.06 53.1598C511.113 52.0664 509.94 51.5198 508.54 51.5198C507.673 51.5198 506.9 51.7131 506.22 52.0998C505.54 52.4731 505.007 52.9998 504.62 53.6798C504.247 54.3598 504.06 55.1331 504.06 55.9998C504.06 56.8664 504.247 57.6398 504.62 58.3198C505.007 58.9998 505.54 59.5331 506.22 59.9198C506.9 60.2931 507.673 60.4798 508.54 60.4798C509.94 60.4798 511.113 59.9264 512.06 58.8198L514.14 60.7398C513.473 61.5531 512.647 62.1731 511.66 62.5998C510.673 63.0264 509.573 63.2398 508.36 63.2398Z"
                    fill="url(#paint41_linear)"
                  />
                  <path
                    d="M523.815 63.2398C522.362 63.2398 521.048 62.9264 519.875 62.2998C518.715 61.6731 517.802 60.8131 517.135 59.7198C516.482 58.6131 516.155 57.3731 516.155 55.9998C516.155 54.6264 516.482 53.3931 517.135 52.2998C517.802 51.1931 518.715 50.3264 519.875 49.6998C521.048 49.0731 522.362 48.7598 523.815 48.7598C525.268 48.7598 526.575 49.0731 527.735 49.6998C528.895 50.3264 529.808 51.1931 530.475 52.2998C531.142 53.3931 531.475 54.6264 531.475 55.9998C531.475 57.3731 531.142 58.6131 530.475 59.7198C529.808 60.8131 528.895 61.6731 527.735 62.2998C526.575 62.9264 525.268 63.2398 523.815 63.2398ZM523.815 60.4798C524.642 60.4798 525.388 60.2931 526.055 59.9198C526.722 59.5331 527.242 58.9998 527.615 58.3198C528.002 57.6398 528.195 56.8664 528.195 55.9998C528.195 55.1331 528.002 54.3598 527.615 53.6798C527.242 52.9998 526.722 52.4731 526.055 52.0998C525.388 51.7131 524.642 51.5198 523.815 51.5198C522.988 51.5198 522.242 51.7131 521.575 52.0998C520.908 52.4731 520.382 52.9998 519.995 53.6798C519.622 54.3598 519.435 55.1331 519.435 55.9998C519.435 56.8664 519.622 57.6398 519.995 58.3198C520.382 58.9998 520.908 59.5331 521.575 59.9198C522.242 60.2931 522.988 60.4798 523.815 60.4798Z"
                    fill="url(#paint42_linear)"
                  />
                  <path
                    d="M547.75 48.9998V62.9998H545.09L538.11 54.4998V62.9998H534.91V48.9998H537.59L544.55 57.4998V48.9998H547.75Z"
                    fill="url(#paint43_linear)"
                  />
                  <path
                    d="M554.962 51.6398H550.482V48.9998H562.682V51.6398H558.202V62.9998H554.962V51.6398Z"
                    fill="url(#paint44_linear)"
                  />
                  <path
                    d="M576.266 60.3998V62.9998H565.426V48.9998H576.006V51.5998H568.646V54.6398H575.146V57.1598H568.646V60.3998H576.266Z"
                    fill="url(#paint45_linear)"
                  />
                  <path
                    d="M592.684 48.9998V62.9998H590.024L583.044 54.4998V62.9998H579.844V48.9998H582.524L589.484 57.4998V48.9998H592.684Z"
                    fill="url(#paint46_linear)"
                  />
                  <path
                    d="M599.896 51.6398H595.416V48.9998H607.616V51.6398H603.136V62.9998H599.896V51.6398Z"
                    fill="url(#paint47_linear)"
                  />
                </g>
                <defs>
                  <filter
                    id="filter0_d"
                    x="0"
                    y="0"
                    width="830"
                    height="864"
                    filterUnits="userSpaceOnUse"
                    color-interpolation-filters="sRGB"
                  >
                    <feFlood flood-opacity="0" result="BackgroundImageFix" />
                    <feColorMatrix
                      in="SourceAlpha"
                      type="matrix"
                      values="0 0 0 0 0 0 0 0 0 0 0 0 0 0 0 0 0 0 127 0"
                    />
                    <feOffset dy="4" />
                    <feGaussianBlur stdDeviation="2" />
                    <feColorMatrix
                      type="matrix"
                      values="0 0 0 0 0 0 0 0 0 0 0 0 0 0 0 0 0 0 0.25 0"
                    />
                    <feBlend
                      mode="normal"
                      in2="BackgroundImageFix"
                      result="effect1_dropShadow"
                    />
                    <feBlend
                      mode="normal"
                      in="SourceGraphic"
                      in2="effect1_dropShadow"
                      result="shape"
                    />
                  </filter>
                  <filter
                    id="filter1_d"
                    x="496.78"
                    y="48.7598"
                    width="114.836"
                    height="22.48"
                    filterUnits="userSpaceOnUse"
                    color-interpolation-filters="sRGB"
                  >
                    <feFlood flood-opacity="0" result="BackgroundImageFix" />
                    <feColorMatrix
                      in="SourceAlpha"
                      type="matrix"
                      values="0 0 0 0 0 0 0 0 0 0 0 0 0 0 0 0 0 0 127 0"
                    />
                    <feOffset dy="4" />
                    <feGaussianBlur stdDeviation="2" />
                    <feColorMatrix
                      type="matrix"
                      values="0 0 0 0 0 0 0 0 0 0 0 0 0 0 0 0 0 0 0.25 0"
                    />
                    <feBlend
                      mode="normal"
                      in2="BackgroundImageFix"
                      result="effect1_dropShadow"
                    />
                    <feBlend
                      mode="normal"
                      in="SourceGraphic"
                      in2="effect1_dropShadow"
                      result="shape"
                    />
                  </filter>
                  <linearGradient
                    id="paint0_linear"
                    x1="127.5"
                    y1="504.55"
                    x2="132.457"
                    y2="565.524"
                    gradientUnits="userSpaceOnUse"
                  >
                    <stop stop-color="#FF0000" />
                    <stop offset="1" stop-color="#DD0C0C" />
                  </linearGradient>
                  <linearGradient
                    id="paint1_linear"
                    x1="127.5"
                    y1="504.55"
                    x2="132.457"
                    y2="565.524"
                    gradientUnits="userSpaceOnUse"
                  >
                    <stop stop-color="#FF0000" />
                    <stop offset="1" stop-color="#DD0C0C" />
                  </linearGradient>
                  <linearGradient
                    id="paint2_linear"
                    x1="127.5"
                    y1="504.55"
                    x2="132.457"
                    y2="565.524"
                    gradientUnits="userSpaceOnUse"
                  >
                    <stop stop-color="#FF0000" />
                    <stop offset="1" stop-color="#DD0C0C" />
                  </linearGradient>
                  <linearGradient
                    id="paint3_linear"
                    x1="127.5"
                    y1="504.55"
                    x2="132.457"
                    y2="565.524"
                    gradientUnits="userSpaceOnUse"
                  >
                    <stop stop-color="#FF0000" />
                    <stop offset="1" stop-color="#DD0C0C" />
                  </linearGradient>
                  <linearGradient
                    id="paint4_linear"
                    x1="127.5"
                    y1="504.55"
                    x2="132.457"
                    y2="565.524"
                    gradientUnits="userSpaceOnUse"
                  >
                    <stop stop-color="#FF0000" />
                    <stop offset="1" stop-color="#DD0C0C" />
                  </linearGradient>
                  <linearGradient
                    id="paint5_linear"
                    x1="127.5"
                    y1="504.55"
                    x2="132.457"
                    y2="565.524"
                    gradientUnits="userSpaceOnUse"
                  >
                    <stop stop-color="#FF0000" />
                    <stop offset="1" stop-color="#DD0C0C" />
                  </linearGradient>
                  <linearGradient
                    id="paint6_linear"
                    x1="127.5"
                    y1="504.55"
                    x2="132.457"
                    y2="565.524"
                    gradientUnits="userSpaceOnUse"
                  >
                    <stop stop-color="#FF0000" />
                    <stop offset="1" stop-color="#DD0C0C" />
                  </linearGradient>
                  <linearGradient
                    id="paint7_linear"
                    x1="351.333"
                    y1="120.722"
                    x2="360.177"
                    y2="227.536"
                    gradientUnits="userSpaceOnUse"
                  >
                    <stop stop-color="#FF0000" />
                    <stop offset="1" stop-color="#DD0C0C" />
                  </linearGradient>
                  <linearGradient
                    id="paint8_linear"
                    x1="351.333"
                    y1="120.722"
                    x2="360.177"
                    y2="227.536"
                    gradientUnits="userSpaceOnUse"
                  >
                    <stop stop-color="#FF0000" />
                    <stop offset="1" stop-color="#DD0C0C" />
                  </linearGradient>
                  <linearGradient
                    id="paint9_linear"
                    x1="351.333"
                    y1="120.722"
                    x2="360.177"
                    y2="227.536"
                    gradientUnits="userSpaceOnUse"
                  >
                    <stop stop-color="#FF0000" />
                    <stop offset="1" stop-color="#DD0C0C" />
                  </linearGradient>
                  <linearGradient
                    id="paint10_linear"
                    x1="351.333"
                    y1="120.722"
                    x2="360.177"
                    y2="227.536"
                    gradientUnits="userSpaceOnUse"
                  >
                    <stop stop-color="#FF0000" />
                    <stop offset="1" stop-color="#DD0C0C" />
                  </linearGradient>
                  <linearGradient
                    id="paint11_linear"
                    x1="351.333"
                    y1="120.722"
                    x2="360.177"
                    y2="227.536"
                    gradientUnits="userSpaceOnUse"
                  >
                    <stop stop-color="#FF0000" />
                    <stop offset="1" stop-color="#DD0C0C" />
                  </linearGradient>
                  <linearGradient
                    id="paint12_linear"
                    x1="351.333"
                    y1="120.722"
                    x2="360.177"
                    y2="227.536"
                    gradientUnits="userSpaceOnUse"
                  >
                    <stop stop-color="#FF0000" />
                    <stop offset="1" stop-color="#DD0C0C" />
                  </linearGradient>
                  <linearGradient
                    id="paint13_linear"
                    x1="351.333"
                    y1="120.722"
                    x2="360.177"
                    y2="227.536"
                    gradientUnits="userSpaceOnUse"
                  >
                    <stop stop-color="#FF0000" />
                    <stop offset="1" stop-color="#DD0C0C" />
                  </linearGradient>
                  <linearGradient
                    id="paint14_linear"
                    x1="351.333"
                    y1="120.722"
                    x2="360.177"
                    y2="227.536"
                    gradientUnits="userSpaceOnUse"
                  >
                    <stop stop-color="#FF0000" />
                    <stop offset="1" stop-color="#DD0C0C" />
                  </linearGradient>
                  <linearGradient
                    id="paint15_linear"
                    x1="351.333"
                    y1="120.722"
                    x2="360.177"
                    y2="227.536"
                    gradientUnits="userSpaceOnUse"
                  >
                    <stop stop-color="#FF0000" />
                    <stop offset="1" stop-color="#DD0C0C" />
                  </linearGradient>
                  <linearGradient
                    id="paint16_linear"
                    x1="351.333"
                    y1="120.722"
                    x2="360.177"
                    y2="227.536"
                    gradientUnits="userSpaceOnUse"
                  >
                    <stop stop-color="#FF0000" />
                    <stop offset="1" stop-color="#DD0C0C" />
                  </linearGradient>
                  <linearGradient
                    id="paint17_linear"
                    x1="351.333"
                    y1="120.722"
                    x2="360.177"
                    y2="227.536"
                    gradientUnits="userSpaceOnUse"
                  >
                    <stop stop-color="#FF0000" />
                    <stop offset="1" stop-color="#DD0C0C" />
                  </linearGradient>
                  <linearGradient
                    id="paint18_linear"
                    x1="351.333"
                    y1="120.722"
                    x2="360.177"
                    y2="227.536"
                    gradientUnits="userSpaceOnUse"
                  >
                    <stop stop-color="#FF0000" />
                    <stop offset="1" stop-color="#DD0C0C" />
                  </linearGradient>
                  <linearGradient
                    id="paint19_linear"
                    x1="46.4586"
                    y1="253.523"
                    x2="234.424"
                    y2="489.88"
                    gradientUnits="userSpaceOnUse"
                  >
                    <stop stop-color="#FF0000" />
                    <stop offset="1" stop-color="#DD0C0C" />
                  </linearGradient>
                  <linearGradient
                    id="paint20_linear"
                    x1="275.139"
                    y1="253.522"
                    x2="434.817"
                    y2="554.704"
                    gradientUnits="userSpaceOnUse"
                  >
                    <stop stop-color="#FF0000" />
                    <stop offset="1" stop-color="#DD0C0C" />
                  </linearGradient>
                  <linearGradient
                    id="paint21_linear"
                    x1="577.168"
                    y1="254.064"
                    x2="798.652"
                    y2="591.704"
                    gradientUnits="userSpaceOnUse"
                  >
                    <stop stop-color="#FF0000" />
                    <stop offset="1" stop-color="#DD0C0C" />
                  </linearGradient>
                  <linearGradient
                    id="paint22_linear"
                    x1="18.6772"
                    y1="114.1"
                    x2="74.3168"
                    y2="290.093"
                    gradientUnits="userSpaceOnUse"
                  >
                    <stop stop-color="#FF0000" />
                    <stop offset="1" stop-color="#DD0C0C" />
                  </linearGradient>
                  <linearGradient
                    id="paint23_linear"
                    x1="18.6772"
                    y1="114.1"
                    x2="74.3168"
                    y2="290.093"
                    gradientUnits="userSpaceOnUse"
                  >
                    <stop stop-color="#FF0000" />
                    <stop offset="1" stop-color="#DD0C0C" />
                  </linearGradient>
                  <linearGradient
                    id="paint24_linear"
                    x1="18.6772"
                    y1="114.1"
                    x2="74.3168"
                    y2="290.093"
                    gradientUnits="userSpaceOnUse"
                  >
                    <stop stop-color="#FF0000" />
                    <stop offset="1" stop-color="#DD0C0C" />
                  </linearGradient>
                  <linearGradient
                    id="paint25_linear"
                    x1="246.841"
                    y1="566.39"
                    x2="267.853"
                    y2="766.991"
                    gradientUnits="userSpaceOnUse"
                  >
                    <stop stop-color="#FF0000" />
                    <stop offset="1" stop-color="#DD0C0C" />
                  </linearGradient>
                  <linearGradient
                    id="paint26_linear"
                    x1="246.841"
                    y1="566.39"
                    x2="267.853"
                    y2="766.991"
                    gradientUnits="userSpaceOnUse"
                  >
                    <stop stop-color="#FF0000" />
                    <stop offset="1" stop-color="#DD0C0C" />
                  </linearGradient>
                  <linearGradient
                    id="paint27_linear"
                    x1="246.841"
                    y1="566.39"
                    x2="267.853"
                    y2="766.991"
                    gradientUnits="userSpaceOnUse"
                  >
                    <stop stop-color="#FF0000" />
                    <stop offset="1" stop-color="#DD0C0C" />
                  </linearGradient>
                  <linearGradient
                    id="paint28_linear"
                    x1="246.841"
                    y1="566.39"
                    x2="267.853"
                    y2="766.991"
                    gradientUnits="userSpaceOnUse"
                  >
                    <stop stop-color="#FF0000" />
                    <stop offset="1" stop-color="#DD0C0C" />
                  </linearGradient>
                  <linearGradient
                    id="paint29_linear"
                    x1="246.841"
                    y1="566.39"
                    x2="267.853"
                    y2="766.991"
                    gradientUnits="userSpaceOnUse"
                  >
                    <stop stop-color="#FF0000" />
                    <stop offset="1" stop-color="#DD0C0C" />
                  </linearGradient>
                  <linearGradient
                    id="paint30_linear"
                    x1="246.841"
                    y1="566.39"
                    x2="267.853"
                    y2="766.991"
                    gradientUnits="userSpaceOnUse"
                  >
                    <stop stop-color="#FF0000" />
                    <stop offset="1" stop-color="#DD0C0C" />
                  </linearGradient>
                  <linearGradient
                    id="paint31_linear"
                    x1="246.841"
                    y1="566.39"
                    x2="267.853"
                    y2="766.991"
                    gradientUnits="userSpaceOnUse"
                  >
                    <stop stop-color="#FF0000" />
                    <stop offset="1" stop-color="#DD0C0C" />
                  </linearGradient>
                  <linearGradient
                    id="paint32_linear"
                    x1="246.841"
                    y1="566.39"
                    x2="267.853"
                    y2="766.991"
                    gradientUnits="userSpaceOnUse"
                  >
                    <stop stop-color="#FF0000" />
                    <stop offset="1" stop-color="#DD0C0C" />
                  </linearGradient>
                  <linearGradient
                    id="paint33_linear"
                    x1="175.92"
                    y1="-7.80494"
                    x2="189.665"
                    y2="91.6974"
                    gradientUnits="userSpaceOnUse"
                  >
                    <stop stop-color="#FF0000" />
                    <stop offset="1" stop-color="#DD0C0C" />
                  </linearGradient>
                  <linearGradient
                    id="paint34_linear"
                    x1="175.92"
                    y1="-7.80494"
                    x2="189.665"
                    y2="91.6974"
                    gradientUnits="userSpaceOnUse"
                  >
                    <stop stop-color="#FF0000" />
                    <stop offset="1" stop-color="#DD0C0C" />
                  </linearGradient>
                  <linearGradient
                    id="paint35_linear"
                    x1="175.92"
                    y1="-7.80494"
                    x2="189.665"
                    y2="91.6974"
                    gradientUnits="userSpaceOnUse"
                  >
                    <stop stop-color="#FF0000" />
                    <stop offset="1" stop-color="#DD0C0C" />
                  </linearGradient>
                  <linearGradient
                    id="paint36_linear"
                    x1="175.92"
                    y1="-7.80494"
                    x2="189.665"
                    y2="91.6974"
                    gradientUnits="userSpaceOnUse"
                  >
                    <stop stop-color="#FF0000" />
                    <stop offset="1" stop-color="#DD0C0C" />
                  </linearGradient>
                  <linearGradient
                    id="paint37_linear"
                    x1="175.92"
                    y1="-7.80494"
                    x2="189.665"
                    y2="91.6974"
                    gradientUnits="userSpaceOnUse"
                  >
                    <stop stop-color="#FF0000" />
                    <stop offset="1" stop-color="#DD0C0C" />
                  </linearGradient>
                  <linearGradient
                    id="paint38_linear"
                    x1="175.92"
                    y1="-7.80494"
                    x2="189.665"
                    y2="91.6974"
                    gradientUnits="userSpaceOnUse"
                  >
                    <stop stop-color="#FF0000" />
                    <stop offset="1" stop-color="#DD0C0C" />
                  </linearGradient>
                  <linearGradient
                    id="paint39_linear"
                    x1="175.92"
                    y1="-7.80494"
                    x2="189.665"
                    y2="91.6974"
                    gradientUnits="userSpaceOnUse"
                  >
                    <stop stop-color="#FF0000" />
                    <stop offset="1" stop-color="#DD0C0C" />
                  </linearGradient>
                  <linearGradient
                    id="paint40_linear"
                    x1="175.92"
                    y1="-7.80494"
                    x2="189.665"
                    y2="91.6974"
                    gradientUnits="userSpaceOnUse"
                  >
                    <stop stop-color="#FF0000" />
                    <stop offset="1" stop-color="#DD0C0C" />
                  </linearGradient>
                  <linearGradient
                    id="paint41_linear"
                    x1="509.298"
                    y1="38.3237"
                    x2="524.893"
                    y2="108.61"
                    gradientUnits="userSpaceOnUse"
                  >
                    <stop stop-color="#FF0000" />
                    <stop offset="1" stop-color="#DD0C0C" />
                  </linearGradient>
                  <linearGradient
                    id="paint42_linear"
                    x1="509.298"
                    y1="38.3237"
                    x2="524.893"
                    y2="108.61"
                    gradientUnits="userSpaceOnUse"
                  >
                    <stop stop-color="#FF0000" />
                    <stop offset="1" stop-color="#DD0C0C" />
                  </linearGradient>
                  <linearGradient
                    id="paint43_linear"
                    x1="509.298"
                    y1="38.3237"
                    x2="524.893"
                    y2="108.61"
                    gradientUnits="userSpaceOnUse"
                  >
                    <stop stop-color="#FF0000" />
                    <stop offset="1" stop-color="#DD0C0C" />
                  </linearGradient>
                  <linearGradient
                    id="paint44_linear"
                    x1="509.298"
                    y1="38.3237"
                    x2="524.893"
                    y2="108.61"
                    gradientUnits="userSpaceOnUse"
                  >
                    <stop stop-color="#FF0000" />
                    <stop offset="1" stop-color="#DD0C0C" />
                  </linearGradient>
                  <linearGradient
                    id="paint45_linear"
                    x1="509.298"
                    y1="38.3237"
                    x2="524.893"
                    y2="108.61"
                    gradientUnits="userSpaceOnUse"
                  >
                    <stop stop-color="#FF0000" />
                    <stop offset="1" stop-color="#DD0C0C" />
                  </linearGradient>
                  <linearGradient
                    id="paint46_linear"
                    x1="509.298"
                    y1="38.3237"
                    x2="524.893"
                    y2="108.61"
                    gradientUnits="userSpaceOnUse"
                  >
                    <stop stop-color="#FF0000" />
                    <stop offset="1" stop-color="#DD0C0C" />
                  </linearGradient>
                  <linearGradient
                    id="paint47_linear"
                    x1="509.298"
                    y1="38.3237"
                    x2="524.893"
                    y2="108.61"
                    gradientUnits="userSpaceOnUse"
                  >
                    <stop stop-color="#FF0000" />
                    <stop offset="1" stop-color="#DD0C0C" />
                  </linearGradient>
                </defs>
              </svg>